<svg version="1.1" id="Layer_1" xmlns="http://www.w3.org/2000/svg" xmlns:xlink="http://www.w3.org/1999/xlink" x="0px" y="0px"
	 width="100%" viewBox="0 0 512 512" enable-background="new 0 0 512 512" xml:space="preserve">
<path fill="#000000" opacity="1.000000" stroke="none" 
	d="
M223.000000,513.000000 
	C148.684677,513.000000 74.869362,513.000000 1.027019,513.000000 
	C1.027019,342.392975 1.027019,171.785965 1.027019,1.089473 
	C171.565353,1.089473 342.130768,1.089473 512.848083,1.089473 
	C512.848083,171.666565 512.848083,342.333252 512.848083,513.000000 
	C416.452606,513.000000 319.976288,513.000000 223.000000,513.000000 
M472.017181,288.492584 
	C476.209137,278.381958 478.270874,267.866425 478.320038,256.908966 
	C478.523499,211.570297 442.908081,174.228271 397.487244,172.688263 
	C381.009613,172.129593 364.499573,172.518997 348.004303,172.496201 
	C346.710541,172.494400 345.416565,172.653412 344.152100,172.735764 
	C344.152100,228.745377 344.152100,284.467560 344.152100,340.515045 
	C360.453156,340.515045 376.428040,340.594116 392.401337,340.468292 
	C397.384186,340.429016 402.442322,340.286682 407.330231,339.423157 
	C437.621582,334.071564 458.984985,317.108887 472.017181,288.492584 
M107.253426,306.821686 
	C110.385002,306.405457 113.561745,306.200165 116.641228,305.540680 
	C150.827682,298.219330 172.776505,268.070404 169.997269,232.352280 
	C167.527206,200.607819 139.496918,173.962692 106.048615,172.768112 
	C83.081444,171.947861 60.062649,172.571457 37.066921,172.573212 
	C36.784691,172.573227 36.502483,172.885895 36.332649,172.986237 
	C36.332649,228.783463 36.332649,284.510742 36.332649,340.179443 
	C47.594280,340.179443 58.516212,340.179443 69.901237,340.179443 
	C69.901237,328.952667 69.901237,318.054199 69.901237,306.852173 
	C82.348450,306.852173 94.326202,306.852173 107.253426,306.821686 
M300.115753,176.312302 
	C292.381592,174.454056 284.741180,171.871765 276.897888,170.855988 
	C228.754181,164.620911 183.059433,203.613068 181.064407,252.307037 
	C179.149323,299.049561 211.878998,337.985168 258.326294,343.508606 
	C283.006775,346.443604 304.904938,339.176392 324.290527,323.236237 
	C318.299286,313.418823 312.473633,303.872772 306.591583,294.234283 
	C283.228699,317.127991 249.638947,314.140472 230.278732,294.933502 
	C210.716110,275.525665 208.972778,244.627487 226.628845,223.243378 
	C235.345596,212.686142 246.673203,206.119522 260.220215,204.347183 
	C278.001068,202.020935 293.638763,207.195969 306.553833,220.141068 
	C312.583160,210.228195 318.350830,200.745529 324.832733,190.088593 
	C316.604767,185.508713 308.693085,181.104858 300.115753,176.312302 
z"/>
<path fill="#FDFDFD" opacity="1.000000" stroke="none" 
	d="
M471.897522,288.855652 
	C458.984985,317.108887 437.621582,334.071564 407.330231,339.423157 
	C402.442322,340.286682 397.384186,340.429016 392.401337,340.468292 
	C376.428040,340.594116 360.453156,340.515045 344.152100,340.515045 
	C344.152100,284.467560 344.152100,228.745377 344.152100,172.735764 
	C345.416565,172.653412 346.710541,172.494400 348.004303,172.496201 
	C364.499573,172.518997 381.009613,172.129593 397.487244,172.688263 
	C442.908081,174.228271 478.523499,211.570297 478.320038,256.908966 
	C478.270874,267.866425 476.209137,278.381958 471.897522,288.855652 
M434.937988,286.380341 
	C448.433136,266.878815 448.053436,242.915955 433.809387,225.181015 
	C419.213654,207.008240 399.365845,204.404892 377.876709,206.501129 
	C377.876709,239.909195 377.876709,273.172607 377.876709,306.493195 
	C399.881470,308.641693 419.973999,305.857086 434.937988,286.380341 
z"/>
<path fill="#FCFCFC" opacity="1.000000" stroke="none" 
	d="
M106.778687,306.836914 
	C94.326202,306.852173 82.348450,306.852173 69.901237,306.852173 
	C69.901237,318.054199 69.901237,328.952667 69.901237,340.179443 
	C58.516212,340.179443 47.594280,340.179443 36.332649,340.179443 
	C36.332649,284.510742 36.332649,228.783463 36.332649,172.986237 
	C36.502483,172.885895 36.784691,172.573227 37.066921,172.573212 
	C60.062649,172.571457 83.081444,171.947861 106.048615,172.768112 
	C139.496918,173.962692 167.527206,200.607819 169.997269,232.352280 
	C172.776505,268.070404 150.827682,298.219330 116.641228,305.540680 
	C113.561745,306.200165 110.385002,306.405457 106.778687,306.836914 
M69.727455,259.496765 
	C69.727455,264.075653 69.727455,268.654541 69.727455,273.264374 
	C81.657135,273.264374 92.810936,273.458405 103.955475,273.219757 
	C121.525970,272.843536 135.251114,259.591278 136.762787,241.888474 
	C138.179703,225.295670 126.374969,209.117783 109.201172,207.024994 
	C96.318161,205.455078 83.090309,206.714920 69.727455,206.714920 
	C69.727455,223.920013 69.727455,241.209213 69.727455,259.496765 
z"/>
<path fill="#FDFDFD" opacity="1.000000" stroke="none" 
	d="
M300.448578,176.506653 
	C308.693085,181.104858 316.604767,185.508713 324.832733,190.088593 
	C318.350830,200.745529 312.583160,210.228195 306.553833,220.141068 
	C293.638763,207.195969 278.001068,202.020935 260.220215,204.347183 
	C246.673203,206.119522 235.345596,212.686142 226.628845,223.243378 
	C208.972778,244.627487 210.716110,275.525665 230.278732,294.933502 
	C249.638947,314.140472 283.228699,317.127991 306.591583,294.234283 
	C312.473633,303.872772 318.299286,313.418823 324.290527,323.236237 
	C304.904938,339.176392 283.006775,346.443604 258.326294,343.508606 
	C211.878998,337.985168 179.149323,299.049561 181.064407,252.307037 
	C183.059433,203.613068 228.754181,164.620911 276.897888,170.855988 
	C284.741180,171.871765 292.381592,174.454056 300.448578,176.506653 
z"/>
<path fill="#010101" opacity="1.000000" stroke="none" 
	d="
M434.720764,286.667969 
	C419.973999,305.857086 399.881470,308.641693 377.876709,306.493195 
	C377.876709,273.172607 377.876709,239.909195 377.876709,206.501129 
	C399.365845,204.404892 419.213654,207.008240 433.809387,225.181015 
	C448.053436,242.915955 448.433136,266.878815 434.720764,286.667969 
z"/>
<path fill="#010101" opacity="1.000000" stroke="none" 
	d="
M69.727455,258.997589 
	C69.727455,241.209213 69.727455,223.920013 69.727455,206.714920 
	C83.090309,206.714920 96.318161,205.455078 109.201172,207.024994 
	C126.374969,209.117783 138.179703,225.295670 136.762787,241.888474 
	C135.251114,259.591278 121.525970,272.843536 103.955475,273.219757 
	C92.810936,273.458405 81.657135,273.264374 69.727455,273.264374 
	C69.727455,268.654541 69.727455,264.075653 69.727455,258.997589 
z"/>
</svg>